# xmcd CD database file
# Copyright (C) 1997 Ti Kan
# 
# Track frame offsets:
#     177
#     12557
#     20372
#     31127
#     39517
#     55612
#     69345
#     89167
#     100020
#     110880
#     122037
#     132975
#     144287
#     159927
# 
# Disc length: 2293 seconds
# 
# Revision: 1
# Processed by: cddbd v1.4b41PL1 Copyright (c) Steve Scherf et al.
# Submitted via: DiscPlay 4.0.4
# 
DISCID=b508f30e
DTITLE=Mance Lipscomb - So Different Blues
DYEAR=1900
DGENRE=
TTITLE0=So Different Blues
TTITLE1=See You Mama Every Night
TTITLE2=Late HouBlues
TTITLE3=Nobody Cares For Me
TTITLE4=Shorty George Cut Down
TTITLE5=Corinna Corrina
TTITLE6=Rock Me Mama
TTITLE7=Shine On Harvest Moon
TTITLE8=Good As I Am To You
TTITLE9=Long Way To Tipparrary
TTITLE10=Getaway Blues
TTITLE11=Trouble In Mind
TTITLE12=Going Down Slow
TTITLE13=Baby Please Don't Go
EXTD=
EXTT0=
EXTT1=
EXTT2=
EXTT3=
EXTT4=
EXTT5=
EXTT6=
EXTT7=
EXTT8=
EXTT9=
EXTT10=
EXTT11=
EXTT12=
EXTT13=
PLAYORDER=
